<svg xmlns="http://www.w3.org/2000/svg" width="256" height="256" viewBox="0 0 256 256"><rect width="256" height="256" fill="rgb(246,246,249)"/><polygon points="10.00,0.00 36.00,0.00 36.00,40.00 10.00,40.00" fill="rgb(26,26,34)"/><polygon points="46.00,0.00 72.00,0.00 86.56,40.00 60.56,40.00" fill="rgb(32,46,120)"/><polygon points="96.00,0.00 122.00,0.00 150.01,40.00 124.01,40.00" fill="rgb(26,26,34)"/><polygon points="160.00,0.00 173.00,0.00 220.67,40.00 207.67,40.00" fill="rgb(26,26,34)"/><polygon points="173.00,0.00 186.00,0.00 233.67,40.00 220.67,40.00" fill="rgb(226,170,40)"/><polygon points="10.00,104.00 36.00,104.00 36.00,144.00 10.00,144.00" fill="rgb(26,26,34)"/><polygon points="46.00,104.00 72.00,104.00 86.56,144.00 60.56,144.00" fill="rgb(32,46,120)"/><polygon points="96.00,104.00 122.00,104.00 150.01,144.00 124.01,144.00" fill="rgb(26,26,34)"/><polygon points="160.00,104.00 173.00,104.00 220.67,144.00 207.67,144.00" fill="rgb(26,26,34)"/><polygon points="173.00,104.00 186.00,104.00 233.67,144.00 220.67,144.00" fill="rgb(226,170,40)"/><polygon points="44.00,256 19.00,212.00 69.00,212.00" fill="rgb(26,26,34)"/><polygon points="128.00,256 84.00,212.00 172.00,212.00" fill="rgb(206,44,52)"/><polygon points="212.00,256 178.00,212.00 246.00,212.00" fill="rgb(32,46,120)"/><rect x="0" y="168" width="52" height="32" fill="rgb(26,26,34)"/><path d="M 256,96 A 44,34 0 0 0 256,164 Z" fill="rgb(32,46,120)"/></svg>
